<svg width="16" height="16" viewBox="0 0 16 16" fill="currentColor" xmlns="http://www.w3.org/2000/svg">
<path d="M15 4H5C4.45 4 4 3.55 4 3C4 2.45 4.45 2 5 2H15C15.55 2 16 2.45 16 3C16 3.55 15.55 4 15 4Z" fill="currentColor"/>
<path d="M15 9H5C4.45 9 4 8.55 4 8C4 7.45 4.45 7 5 7H15C15.55 7 16 7.45 16 8C16 8.55 15.55 9 15 9Z" fill="currentColor"/>
<path d="M15 14H5C4.45 14 4 13.55 4 13C4 12.45 4.45 12 5 12H15C15.55 12 16 12.45 16 13C16 13.55 15.55 14 15 14Z" fill="currentColor"/>
<path d="M1 4C1.55228 4 2 3.55228 2 3C2 2.44772 1.55228 2 1 2C0.447715 2 0 2.44772 0 3C0 3.55228 0.447715 4 1 4Z" fill="currentColor"/>
<path d="M1 9C1.55228 9 2 8.55228 2 8C2 7.44772 1.55228 7 1 7C0.447715 7 0 7.44772 0 8C0 8.55228 0.447715 9 1 9Z" fill="currentColor"/>
<path d="M1 14C1.55228 14 2 13.5523 2 13C2 12.4477 1.55228 12 1 12C0.447715 12 0 12.4477 0 13C0 13.5523 0.447715 14 1 14Z" fill="currentColor"/>
</svg>
