<svg width="16" height="16" viewBox="0 0 16 16" fill="currentColor" xmlns="http://www.w3.org/2000/svg">
<path d="M14.5 3H11V2.5C11 1.67 10.33 1 9.5 1H6.5C5.67 1 5 1.67 5 2.5V3H1.5C1.22 3 1 3.22 1 3.5C1 3.78 1.22 4 1.5 4H2.04L2.86 12.98C2.96 14.13 4.04 15 5.35 15H10.65C11.97 15 13.04 14.13 13.14 12.98L13.96 4H14.5C14.78 4 15 3.78 15 3.5C15 3.22 14.78 3 14.5 3ZM6 2.5C6 2.22 6.22 2 6.5 2H9.5C9.78 2 10 2.22 10 2.5V3H6V2.5ZM12.14 12.89C12.08 13.51 11.43 14 10.64 14H5.34C4.56 14 3.9 13.51 3.84 12.89L3.05 4H12.95L12.14 12.89Z"/>
</svg>
