<svg width="1059" height="1374" viewBox="0 0 1059 1374" fill="none" xmlns="http://www.w3.org/2000/svg">
<path fill-rule="evenodd" clip-rule="evenodd" d="M908.5 1374C920.374 1374 930 1364.37 930 1352.5V724.5C930 712.626 920.374 703 908.5 703C896.626 703 887 712.626 887 724.5V1331H170V724.5C170 712.626 160.374 703 148.5 703C136.626 703 127 712.626 127 724.5V1352.5C127 1364.37 136.626 1374 148.5 1374H908.5Z" fill="white"/>
<path fill-rule="evenodd" clip-rule="evenodd" d="M7.32724 863.576C-1.13777 855.111 -1.13777 841.386 7.32724 832.921L513.921 326.327C518.333 321.916 524.172 319.804 529.952 319.99C535.731 319.804 541.57 321.916 545.982 326.327L803 583.346V467.5C803 455.626 812.626 446 824.5 446C836.374 446 846 455.626 846 467.5V626.346L1052.58 832.921C1061.04 841.386 1061.04 855.111 1052.58 863.576C1044.11 872.041 1030.39 872.041 1021.92 863.576L529.952 371.606L37.9817 863.576C29.5167 872.041 15.7922 872.041 7.32724 863.576Z" fill="white"/>
<path fill-rule="evenodd" clip-rule="evenodd" d="M477.787 10C482.287 12.5 490.287 19 493.787 23C497.287 27 504.787 36.5 508.287 42C511.787 47.5 518.787 61 518.787 61C518.787 61 520.986 65.5 523.287 65.5C525.587 65.5 527.287 61.5 527.287 61.5C527.287 61.5 532.787 49.5 535.287 44.5C537.104 40.8662 539.713 37.2324 541.771 34.3663C542.544 33.2887 543.24 32.3197 543.787 31.5C545.787 28.5 549.787 24.5 551.287 23C551.65 22.6368 552.248 22.0098 553.009 21.2112C555.391 18.7117 559.376 14.5315 562.787 11.5C567.287 7.5 569.287 6 573.287 4C577.287 2 581.287 1 584.787 1C588.287 1 591.787 1.5 595.787 4C599.787 6.5 605.287 13.5 606.787 16C608.287 18.5 612.787 28 614.287 31.5C615.787 35 616.787 39.5 617.787 46C618.787 52.5 619.287 61 619.287 68C619.287 75 616.287 87 616.287 87L611.787 104L604.287 123L595.287 139.5L582.787 160.5L565.287 187C565.287 187 554.787 202.5 550.787 208.5C546.787 214.5 540.787 223.5 537.287 225.5C533.787 227.5 523.287 217 523.287 217L509.287 200L491.787 174L478.287 153.5L464.787 130L452.287 104L443.787 87C443.787 87 440.167 77 438.667 63C437.167 49 438.667 46 438.667 46C438.667 46 440.787 31.5 442.287 27.5C443.787 23.5 446.287 19 446.287 19C446.287 19 451.787 7 458.787 6C465.787 5 473.287 7.5 477.787 10ZM482.287 31C484.967 32.8799 494.702 45.4922 496.787 48.5C498.135 50.4449 500.213 55.0448 502.077 59.1709C503.095 61.4255 504.05 63.5387 504.787 65C505.919 67.2469 508.183 73.8414 510.254 79.8773C511.996 84.951 513.602 89.6299 514.287 91C515.787 94 519.287 100 524.787 100C530.287 100 532.287 95 532.287 95C532.287 95 539.297 72.7596 540.787 69C541.094 68.2251 541.499 67.1859 541.961 66.0044C543.739 61.453 546.341 54.7908 547.287 53C547.363 52.8552 547.445 52.7007 547.53 52.538C548.782 50.166 550.95 46.0555 551.787 45C552.075 44.6355 552.524 43.9331 553.09 43.0477C554.274 41.1931 555.972 38.5358 557.787 36.5C559.285 34.8187 559.89 34.0796 560.655 33.1435C561.259 32.4049 561.964 31.5435 563.287 30C563.682 29.5387 564.06 29.086 564.43 28.6432C566.866 25.7265 568.946 23.2363 573.287 21.5C575.911 20.4503 576.882 19.9516 577.864 19.9314C578.752 19.9132 579.648 20.2873 581.787 21C586.287 22.5 588.787 28.5 590.287 33.5C591.787 38.5 592.787 44.5 593.287 51.5C593.787 58.5 593.287 65 593.287 65V74.5C593.287 77.5 591.787 83 591.787 83L587.787 95L584.287 104.449L578.35 118.736L572.989 131.143L564.287 147L554.287 166.5C554.287 166.5 547.17 178.488 544.787 183C543.866 184.744 543.059 186.634 542.28 188.458C541.044 191.354 539.878 194.086 538.436 195.809C536.085 198.618 530.095 189.418 530.095 189.418L521.287 177L508.287 158L499.787 140.5L489.287 121C489.287 121 483.287 106.5 481.84 104.449C480.394 102.398 475.787 93.5 474.287 88.9997C472.787 84.4994 469.287 73 469.287 73L465.787 56.4997C465.787 56.4997 464.787 47.5 464.787 42.5V42.4998C464.787 37.4999 464.787 32 465.787 29.5C466.787 27 467.287 26.4997 471.287 26C474.791 25.5623 478.541 28.2867 481.219 30.2326C481.597 30.5077 481.955 30.7672 482.287 31Z" fill="white"/>
<path d="M518.787 61L519.236 60.7804L519.23 60.7698L518.787 61ZM527.287 61.5L526.832 61.2916L526.826 61.3045L527.287 61.5ZM535.287 44.5L535.734 44.7236L535.734 44.7236L535.287 44.5ZM541.771 34.3663L541.364 34.0746L541.364 34.0746L541.771 34.3663ZM543.787 31.5L544.203 31.7774L543.787 31.5ZM551.287 23L551.64 23.3536L551.64 23.3536L551.287 23ZM553.009 21.2112L552.647 20.8662L552.647 20.8662L553.009 21.2112ZM562.787 11.5L563.119 11.8737L563.119 11.8737L562.787 11.5ZM616.287 87L616.77 87.128L616.772 87.1213L616.287 87ZM611.787 104L612.252 104.184L612.262 104.156L612.27 104.128L611.787 104ZM604.287 123L604.726 123.239L604.74 123.212L604.752 123.184L604.287 123ZM595.287 139.5L595.716 139.756L595.721 139.748L595.726 139.739L595.287 139.5ZM582.787 160.5L583.204 160.776L583.21 160.766L583.216 160.756L582.787 160.5ZM565.287 187L565.701 187.28L565.704 187.276L565.287 187ZM523.287 217L522.901 217.318L522.916 217.336L522.933 217.354L523.287 217ZM509.287 200L508.872 200.279L508.885 200.299L508.901 200.318L509.287 200ZM491.787 174L491.369 174.275L491.372 174.279L491.787 174ZM478.287 153.5L477.853 153.749L477.861 153.762L477.869 153.775L478.287 153.5ZM464.787 130L464.336 130.217L464.344 130.233L464.353 130.249L464.787 130ZM452.287 104L452.737 103.783L452.734 103.776L452.287 104ZM443.787 87L443.316 87.1702L443.326 87.1976L443.339 87.2236L443.787 87ZM438.667 63L438.17 63.0533L438.667 63ZM438.667 46L439.114 46.2236L439.15 46.1518L439.161 46.0723L438.667 46ZM446.287 19L446.724 19.2428L446.733 19.2259L446.741 19.2083L446.287 19ZM496.787 48.5L496.376 48.7848L496.376 48.7848L496.787 48.5ZM482.287 31L482 31.4094L482 31.4094L482.287 31ZM502.077 59.1709L502.532 58.9651L502.532 58.9651L502.077 59.1709ZM504.787 65L505.233 64.7749L505.233 64.7749L504.787 65ZM510.254 79.8773L509.781 80.0396L509.781 80.0396L510.254 79.8773ZM532.287 95L532.751 95.1857L532.758 95.1682L532.763 95.1503L532.287 95ZM540.787 69L541.251 69.1841L541.251 69.1841L540.787 69ZM541.961 66.0044L542.427 66.1863L542.427 66.1863L541.961 66.0044ZM547.287 53L547.729 53.2335L547.729 53.2335L547.287 53ZM547.53 52.538L547.088 52.3047L547.088 52.3047L547.53 52.538ZM551.787 45L552.178 45.3105L552.178 45.3105L551.787 45ZM553.09 43.0477L552.668 42.7785L552.668 42.7785L553.09 43.0477ZM557.787 36.5L557.413 36.1673L557.413 36.1673L557.787 36.5ZM560.655 33.1435L560.268 32.8269L560.268 32.8269L560.655 33.1435ZM563.287 30L562.907 29.6746L562.907 29.6746L563.287 30ZM564.43 28.6432L564.046 28.3227L564.046 28.3227L564.43 28.6432ZM573.287 21.5L573.101 21.0357L573.101 21.0357L573.287 21.5ZM577.864 19.9314L577.853 19.4315L577.853 19.4315L577.864 19.9314ZM581.787 21L581.628 21.4744L581.628 21.4744L581.787 21ZM593.287 51.5L593.785 51.4644L593.785 51.4644L593.287 51.5ZM593.287 65L592.788 64.9616L592.787 64.9808V65H593.287ZM591.787 83L592.261 83.1581L592.265 83.145L592.269 83.1316L591.787 83ZM587.787 95L588.255 95.1736L588.258 95.1659L588.261 95.1581L587.787 95ZM584.287 104.449L584.748 104.641L584.752 104.632L584.755 104.623L584.287 104.449ZM578.35 118.736L578.809 118.934L578.812 118.928L578.35 118.736ZM572.989 131.143L573.427 131.383L573.438 131.363L573.448 131.341L572.989 131.143ZM564.287 147L563.848 146.759L563.842 146.772L564.287 147ZM554.287 166.5L554.717 166.755L554.724 166.742L554.731 166.728L554.287 166.5ZM544.787 183L544.344 182.766L544.344 182.766L544.787 183ZM542.28 188.458L541.82 188.262L541.82 188.262L542.28 188.458ZM538.436 195.809L538.052 195.488L538.052 195.488L538.436 195.809ZM530.095 189.418L530.514 189.145L530.509 189.137L530.503 189.128L530.095 189.418ZM521.287 177L520.874 177.282L520.879 177.289L521.287 177ZM508.287 158L507.837 158.218L507.853 158.251L507.874 158.282L508.287 158ZM499.787 140.5L500.236 140.281L500.232 140.272L500.227 140.263L499.787 140.5ZM489.287 121L488.825 121.191L488.834 121.214L488.846 121.237L489.287 121ZM481.84 104.449L481.432 104.737L481.432 104.737L481.84 104.449ZM474.287 88.9997L474.761 88.8416L474.761 88.8416L474.287 88.9997ZM469.287 73L468.797 73.1038L468.802 73.1249L468.808 73.1456L469.287 73ZM465.787 56.4997L465.29 56.5549L465.292 56.5794L465.297 56.6034L465.787 56.4997ZM465.787 29.5L466.251 29.6857L466.251 29.6857L465.787 29.5ZM471.287 26L471.349 26.4962L471.349 26.4962L471.287 26ZM481.219 30.2326L480.925 30.6371L480.925 30.6371L481.219 30.2326ZM494.163 22.6707C492.386 20.6398 489.486 17.9943 486.477 15.5494C483.468 13.105 480.317 10.8338 478.029 9.56292L477.544 10.4371C479.756 11.6662 482.855 13.895 485.846 16.3256C488.837 18.7557 491.687 21.3602 493.41 23.3293L494.163 22.6707ZM508.708 41.7316C505.19 36.2027 497.673 26.6818 494.163 22.6707L493.41 23.3293C496.901 27.3182 504.383 36.7973 507.865 42.2684L508.708 41.7316ZM518.787 61C519.23 60.7698 519.23 60.7698 519.23 60.7697C519.23 60.7696 519.23 60.7694 519.23 60.7692C519.23 60.7688 519.23 60.7681 519.229 60.7673C519.228 60.7657 519.227 60.7632 519.225 60.7599C519.222 60.7533 519.217 60.7436 519.21 60.7307C519.197 60.7049 519.177 60.6665 519.151 60.6163C519.098 60.5159 519.021 60.368 518.922 60.1779C518.724 59.7975 518.436 59.2482 518.081 58.5719C517.369 57.2194 516.384 55.3585 515.289 53.3255C513.103 49.2649 510.47 44.4993 508.708 41.7316L507.865 42.2684C509.604 45.0007 512.22 49.7351 514.409 53.7995C515.502 55.829 516.485 57.6869 517.196 59.0375C517.551 59.7127 517.838 60.261 518.036 60.6405C518.135 60.8302 518.212 60.9777 518.264 61.0778C518.29 61.1278 518.309 61.1659 518.323 61.1915C518.329 61.2043 518.334 61.214 518.338 61.2205C518.339 61.2237 518.341 61.2261 518.341 61.2278C518.342 61.2286 518.342 61.2292 518.342 61.2296C518.343 61.2298 518.343 61.2299 518.343 61.23C518.343 61.2301 518.343 61.2302 518.787 61ZM523.287 65C522.873 65 522.413 64.7949 521.924 64.4058C521.442 64.0213 520.981 63.4962 520.575 62.9514C520.172 62.4096 519.836 61.865 519.6 61.4542C519.482 61.2494 519.39 61.0791 519.328 60.9608C519.297 60.9017 519.274 60.8557 519.258 60.8248C519.25 60.8094 519.244 60.7979 519.241 60.7904C519.239 60.7866 519.238 60.7839 519.237 60.7822C519.236 60.7814 519.236 60.7808 519.236 60.7805C519.236 60.7804 519.236 60.7803 519.236 60.7803C519.236 60.7803 519.236 60.7803 519.236 60.7803C519.236 60.7804 519.236 60.7804 518.787 61C518.337 61.2196 518.337 61.2197 518.338 61.2198C518.338 61.2199 518.338 61.22 518.338 61.2201C518.338 61.2204 518.338 61.2207 518.338 61.2211C518.339 61.2219 518.339 61.223 518.34 61.2243C518.341 61.227 518.343 61.2307 518.345 61.2355C518.35 61.245 518.357 61.2587 518.366 61.2762C518.383 61.3113 518.409 61.362 518.443 61.4259C518.51 61.5537 518.608 61.735 518.733 61.952C518.981 62.385 519.339 62.9654 519.773 63.5486C520.205 64.1288 520.725 64.7287 521.302 65.188C521.872 65.6426 522.55 66 523.287 66V65ZM527.287 61.5C526.826 61.3045 526.826 61.3044 526.826 61.3043C526.826 61.3043 526.827 61.3042 526.827 61.3042C526.827 61.3042 526.827 61.3042 526.826 61.3043C526.826 61.3045 526.826 61.3049 526.826 61.3056C526.825 61.3069 526.824 61.3092 526.823 61.3123C526.82 61.3187 526.816 61.3286 526.81 61.342C526.798 61.3687 526.78 61.4089 526.756 61.4607C526.708 61.5643 526.635 61.7139 526.542 61.8941C526.353 62.2556 526.081 62.7343 525.742 63.2099C525.401 63.6882 525.006 64.146 524.575 64.4801C524.145 64.8147 523.713 65 523.287 65V66C524.011 66 524.654 65.6853 525.189 65.2699C525.724 64.854 526.185 64.3118 526.556 63.7901C526.93 63.2657 527.226 62.7444 527.429 62.3559C527.53 62.1611 527.609 61.9982 527.662 61.8831C527.689 61.8255 527.71 61.7797 527.724 61.7479C527.731 61.7319 527.736 61.7194 527.74 61.7106C527.742 61.7062 527.744 61.7027 527.745 61.7002C527.745 61.6989 527.746 61.6979 527.746 61.6971C527.746 61.6968 527.746 61.6964 527.747 61.6962C527.747 61.696 527.747 61.6959 527.747 61.6958C527.747 61.6957 527.747 61.6955 527.287 61.5ZM534.839 44.2764C533.586 46.7836 531.583 51.0398 529.896 54.664C529.052 56.4772 528.286 58.134 527.731 59.3375C527.454 59.9393 527.229 60.4278 527.073 60.7658C526.996 60.9349 526.935 61.0663 526.895 61.1555C526.874 61.2001 526.858 61.2341 526.848 61.257C526.843 61.2684 526.839 61.2771 526.836 61.2829C526.835 61.2858 526.834 61.288 526.833 61.2895C526.833 61.2902 526.832 61.2907 526.832 61.2911C526.832 61.2913 526.832 61.2914 526.832 61.2915C526.832 61.2916 526.832 61.2917 527.287 61.5C527.741 61.7083 527.741 61.7083 527.741 61.7082C527.741 61.7081 527.741 61.708 527.741 61.7078C527.742 61.7074 527.742 61.7069 527.742 61.7062C527.743 61.7047 527.744 61.7025 527.745 61.6997C527.748 61.6939 527.752 61.6853 527.757 61.6739C527.767 61.651 527.783 61.6171 527.803 61.5726C527.844 61.4835 527.905 61.3523 527.982 61.1834C528.137 60.8457 528.362 60.3576 528.639 59.7562C529.194 58.5535 529.959 56.8978 530.802 55.086C532.49 51.4602 534.487 47.2164 535.734 44.7236L534.839 44.2764ZM541.364 34.0746C539.311 36.9347 536.677 40.6008 534.839 44.2764L535.734 44.7236C537.53 41.1316 540.114 37.53 542.177 34.6579L541.364 34.0746ZM543.371 31.2226C542.83 32.0336 542.14 32.9948 541.364 34.0746L542.177 34.6579C542.949 33.5827 543.65 32.6058 544.203 31.7774L543.371 31.2226ZM550.933 22.6464C549.445 24.1349 545.404 28.1726 543.371 31.2226L544.203 31.7774C546.169 28.8274 550.129 24.8651 551.64 23.3536L550.933 22.6464ZM552.647 20.8662C551.883 21.6673 551.291 22.2886 550.933 22.6464L551.64 23.3536C552.009 22.985 552.612 22.3523 553.371 21.5562L552.647 20.8662ZM562.454 11.1263C559.026 14.1741 555.026 18.3702 552.647 20.8662L553.371 21.5562C555.757 19.0531 559.727 14.8888 563.119 11.8737L562.454 11.1263ZM573.063 3.55279C569.008 5.58015 566.971 7.11144 562.454 11.1263L563.119 11.8737C567.602 7.88856 569.565 6.41985 573.51 4.44721L573.063 3.55279ZM584.787 0.5C581.195 0.5 577.119 1.5247 573.063 3.55279L573.51 4.44721C577.454 2.4753 581.378 1.5 584.787 1.5V0.5ZM596.052 3.576C591.949 1.01189 588.349 0.5 584.787 0.5V1.5C588.225 1.5 591.624 1.98811 595.522 4.424L596.052 3.576ZM607.215 15.7428C606.445 14.4584 604.674 12.059 602.602 9.67216C600.534 7.2913 598.119 4.86782 596.052 3.576L595.522 4.424C597.455 5.63218 599.789 7.9587 601.847 10.3278C603.899 12.691 605.628 15.0416 606.358 16.2572L607.215 15.7428ZM614.746 31.303C613.245 27.8006 608.734 18.2739 607.215 15.7428L606.358 16.2572C607.839 18.7261 612.328 28.1994 613.827 31.697L614.746 31.303ZM618.281 45.924C617.28 39.4186 616.273 34.8651 614.746 31.303L613.827 31.697C615.3 35.1349 616.293 39.5814 617.292 46.076L618.281 45.924ZM619.787 68C619.787 60.9823 619.286 52.4558 618.281 45.924L617.292 46.076C618.288 52.5442 618.787 61.0177 618.787 68H619.787ZM616.287 87C616.772 87.1213 616.772 87.1212 616.772 87.1211C616.772 87.121 616.772 87.1208 616.772 87.1206C616.772 87.1202 616.772 87.1196 616.772 87.1188C616.773 87.1173 616.773 87.115 616.774 87.112C616.775 87.106 616.778 87.0972 616.781 87.0856C616.786 87.0623 616.795 87.0278 616.806 86.9826C616.828 86.8923 616.86 86.7591 616.902 86.5874C616.984 86.2439 617.102 85.746 617.243 85.1267C617.525 83.8884 617.901 82.1641 618.277 80.22C619.028 76.3427 619.787 71.5519 619.787 68H618.787C618.787 71.4481 618.045 76.1573 617.296 80.03C616.922 81.9609 616.548 83.6741 616.268 84.9045C616.128 85.5197 616.011 86.0139 615.929 86.354C615.889 86.5241 615.856 86.6556 615.835 86.7444C615.824 86.7889 615.815 86.8226 615.81 86.8452C615.807 86.8564 615.805 86.8649 615.804 86.8705C615.803 86.8733 615.802 86.8754 615.802 86.8768C615.802 86.8775 615.802 86.878 615.802 86.8783C615.802 86.8785 615.802 86.8786 615.802 86.8787C615.802 86.8787 615.802 86.8787 616.287 87ZM612.27 104.128L616.77 87.1279L615.803 86.8721L611.303 103.872L612.27 104.128ZM604.752 123.184L612.252 104.184L611.322 103.816L603.822 122.816L604.752 123.184ZM595.726 139.739L604.726 123.239L603.848 122.761L594.848 139.261L595.726 139.739ZM583.216 160.756L595.716 139.756L594.857 139.244L582.357 160.244L583.216 160.756ZM565.704 187.276L583.204 160.776L582.369 160.224L564.869 186.724L565.704 187.276ZM551.203 208.777C553.202 205.779 556.826 200.405 559.951 195.78C561.513 193.468 562.951 191.343 563.998 189.796C564.521 189.022 564.947 188.394 565.242 187.958C565.389 187.74 565.504 187.571 565.582 187.456C565.621 187.398 565.65 187.355 565.67 187.325C565.68 187.31 565.688 187.299 565.693 187.292C565.695 187.288 565.697 187.285 565.699 187.283C565.699 187.282 565.7 187.282 565.7 187.281C565.7 187.281 565.7 187.281 565.7 187.281C565.701 187.28 565.701 187.28 565.287 187C564.873 186.72 564.873 186.72 564.873 186.72C564.872 186.72 564.872 186.72 564.872 186.72C564.872 186.721 564.871 186.721 564.871 186.722C564.869 186.724 564.868 186.727 564.865 186.731C564.86 186.738 564.852 186.749 564.842 186.764C564.822 186.794 564.793 186.838 564.754 186.895C564.676 187.01 564.561 187.18 564.414 187.397C564.119 187.833 563.693 188.462 563.169 189.235C562.122 190.782 560.685 192.907 559.122 195.22C555.997 199.845 552.372 205.221 550.371 208.223L551.203 208.777ZM537.535 225.934C538.48 225.394 539.554 224.409 540.679 223.182C541.811 221.946 543.025 220.432 544.249 218.8C546.696 215.537 549.204 211.775 551.203 208.777L550.371 208.223C548.369 211.225 545.877 214.963 543.449 218.2C542.235 219.818 541.043 221.304 539.941 222.506C538.832 223.716 537.844 224.606 537.039 225.066L537.535 225.934ZM523.287 217C522.933 217.354 522.933 217.354 522.933 217.354C522.933 217.354 522.934 217.354 522.934 217.354C522.934 217.355 522.935 217.355 522.935 217.356C522.937 217.357 522.939 217.359 522.941 217.362C522.947 217.367 522.955 217.375 522.965 217.385C522.985 217.405 523.015 217.435 523.055 217.474C523.134 217.552 523.249 217.665 523.398 217.807C523.694 218.093 524.121 218.498 524.644 218.978C525.689 219.936 527.122 221.196 528.668 222.395C530.209 223.59 531.883 224.741 533.408 225.467C534.17 225.83 534.916 226.097 535.604 226.203C536.291 226.309 536.965 226.26 537.535 225.934L537.039 225.066C536.733 225.24 536.313 225.3 535.756 225.215C535.2 225.129 534.552 224.904 533.838 224.564C532.409 223.884 530.802 222.785 529.281 221.605C527.764 220.429 526.353 219.189 525.32 218.241C524.804 217.768 524.383 217.368 524.092 217.087C523.946 216.947 523.832 216.836 523.756 216.761C523.718 216.723 523.688 216.694 523.669 216.675C523.659 216.665 523.652 216.658 523.647 216.653C523.645 216.651 523.643 216.649 523.642 216.648C523.641 216.647 523.641 216.647 523.64 216.647C523.64 216.647 523.64 216.647 523.64 216.646C523.64 216.646 523.64 216.646 523.287 217ZM508.901 200.318L522.901 217.318L523.673 216.682L509.673 199.682L508.901 200.318ZM491.372 174.279L508.872 200.279L509.701 199.721L492.201 173.721L491.372 174.279ZM477.869 153.775L491.369 174.275L492.204 173.725L478.704 153.225L477.869 153.775ZM464.353 130.249L477.853 153.749L478.72 153.251L465.22 129.751L464.353 130.249ZM451.836 104.217L464.336 130.217L465.237 129.783L452.737 103.783L451.836 104.217ZM443.339 87.2236L451.839 104.224L452.734 103.776L444.234 86.7764L443.339 87.2236ZM438.17 63.0533C438.923 70.0823 440.208 76.1065 441.305 80.3745C441.854 82.5088 442.355 84.2047 442.72 85.3684C442.903 85.9503 443.052 86.3992 443.155 86.7034C443.206 86.8555 443.246 86.9714 443.274 87.0497C443.287 87.0889 443.298 87.1186 443.305 87.1387C443.309 87.1488 443.312 87.1565 443.313 87.1617C443.314 87.1643 443.315 87.1664 443.316 87.1678C443.316 87.1685 443.316 87.169 443.316 87.1694C443.316 87.1696 443.316 87.1698 443.316 87.1699C443.316 87.1701 443.316 87.1702 443.787 87C444.257 86.8298 444.257 86.8298 444.257 86.8298C444.257 86.8298 444.257 86.8297 444.257 86.8296C444.257 86.8294 444.256 86.8291 444.256 86.8286C444.256 86.8275 444.255 86.8259 444.255 86.8237C444.253 86.8192 444.25 86.8123 444.247 86.803C444.241 86.7845 444.231 86.7564 444.217 86.7188C444.191 86.6438 444.152 86.5312 444.102 86.3825C444.001 86.0851 443.855 85.6434 443.675 85.0691C443.314 83.9203 442.817 82.2412 442.273 80.1255C441.186 75.8935 439.911 69.9177 439.164 62.9467L438.17 63.0533ZM438.667 46C438.219 45.7764 438.219 45.7769 438.219 45.7774C438.219 45.7776 438.219 45.7781 438.218 45.7785C438.218 45.7793 438.218 45.7801 438.217 45.7809C438.216 45.7826 438.216 45.7844 438.215 45.7865C438.213 45.7906 438.21 45.7954 438.208 45.801C438.203 45.8122 438.196 45.8265 438.189 45.8442C438.174 45.8794 438.155 45.928 438.133 45.9918C438.089 46.1194 438.031 46.3082 437.969 46.5734C437.845 47.1034 437.701 47.9422 437.606 49.2126C437.415 51.7522 437.417 56.0342 438.17 63.0533L439.164 62.9467C438.416 55.9658 438.418 51.7478 438.603 49.2874C438.695 48.0578 438.832 47.2716 438.943 46.8016C438.998 46.5668 439.046 46.4119 439.077 46.3207C439.093 46.2751 439.105 46.2456 439.111 46.23C439.115 46.2223 439.117 46.218 439.117 46.217C439.117 46.2166 439.117 46.2169 439.117 46.218C439.116 46.2185 439.116 46.2193 439.116 46.2202C439.115 46.2207 439.115 46.2212 439.115 46.2218C439.115 46.2221 439.114 46.2225 439.114 46.2227C439.114 46.2231 439.114 46.2236 438.667 46ZM441.818 27.3244C441.048 29.378 440.136 34.0561 439.422 38.1643C439.062 40.2305 438.75 42.1709 438.527 43.5947C438.416 44.3066 438.327 44.8896 438.266 45.2947C438.236 45.4972 438.212 45.6553 438.196 45.7628C438.188 45.8166 438.182 45.8577 438.178 45.8855C438.176 45.8993 438.175 45.9098 438.174 45.9169C438.173 45.9204 438.173 45.9231 438.172 45.9249C438.172 45.9258 438.172 45.9265 438.172 45.9269C438.172 45.9272 438.172 45.9274 438.172 45.9275C438.172 45.9276 438.172 45.9277 438.667 46C439.161 46.0723 439.161 46.0723 439.161 46.0722C439.161 46.0721 439.161 46.0719 439.161 46.0717C439.162 46.0713 439.162 46.0707 439.162 46.0698C439.162 46.0681 439.162 46.0655 439.163 46.062C439.164 46.0551 439.165 46.0448 439.167 46.0311C439.171 46.0037 439.178 45.9629 439.185 45.9095C439.201 45.8027 439.225 45.6454 439.255 45.4436C439.316 45.0401 439.404 44.459 439.515 43.7491C439.737 42.3291 440.049 40.3945 440.407 38.3357C441.127 34.1939 442.025 29.622 442.755 27.6756L441.818 27.3244ZM446.287 19C445.85 18.7572 445.849 18.7572 445.849 18.7573C445.849 18.7573 445.849 18.7574 445.849 18.7575C445.849 18.7577 445.849 18.7579 445.849 18.7582C445.849 18.7588 445.848 18.7597 445.847 18.7609C445.846 18.7632 445.844 18.7666 445.842 18.7711C445.837 18.78 445.83 18.7932 445.82 18.8104C445.801 18.845 445.773 18.8959 445.737 18.962C445.665 19.0941 445.561 19.287 445.431 19.5307C445.172 20.0181 444.81 20.7094 444.402 21.5264C443.586 23.1578 442.577 25.3007 441.818 27.3244L442.755 27.6756C443.496 25.6993 444.487 23.5922 445.296 21.9736C445.7 21.1656 446.058 20.4819 446.314 20.0005C446.442 19.7599 446.545 19.5699 446.615 19.4404C446.651 19.3756 446.678 19.3259 446.696 19.2926C446.705 19.2759 446.712 19.2633 446.717 19.255C446.719 19.2508 446.721 19.2477 446.722 19.2457C446.723 19.2447 446.723 19.2439 446.723 19.2434C446.723 19.2432 446.724 19.243 446.724 19.2429C446.724 19.2429 446.724 19.2428 446.724 19.2428C446.724 19.2428 446.724 19.2428 446.287 19ZM458.716 5.50503C456.839 5.7732 455.097 6.7721 453.558 8.07098C452.016 9.37231 450.645 11.0011 449.506 12.5828C448.366 14.1666 447.449 15.7163 446.817 16.8691C446.501 17.446 446.256 17.9246 446.089 18.2599C446.006 18.4275 445.942 18.5594 445.899 18.6499C445.877 18.6952 445.861 18.7301 445.85 18.7539C445.844 18.7659 445.84 18.775 445.837 18.7814C445.835 18.7845 445.834 18.787 445.833 18.7887C445.833 18.7895 445.833 18.7902 445.833 18.7907C445.832 18.791 445.832 18.7912 445.832 18.7913C445.832 18.7915 445.832 18.7917 446.287 19C446.741 19.2083 446.741 19.2084 446.741 19.2084C446.741 19.2083 446.741 19.2083 446.741 19.2082C446.741 19.2079 446.741 19.2075 446.742 19.2069C446.742 19.2058 446.743 19.2039 446.744 19.2012C446.747 19.196 446.751 19.188 446.756 19.1772C446.766 19.1555 446.781 19.1229 446.801 19.0801C446.842 18.9943 446.904 18.8674 446.984 18.705C447.146 18.3801 447.385 17.9134 447.694 17.3496C448.312 16.2212 449.208 14.7084 450.317 13.1672C451.429 11.6239 452.745 10.0652 454.203 8.83527C455.663 7.6029 457.235 6.7268 458.857 6.49497L458.716 5.50503ZM478.029 9.56292C473.473 7.03141 465.861 4.48433 458.716 5.50503L458.857 6.49497C465.712 5.51567 473.101 7.96859 477.544 10.4371L478.029 9.56292ZM497.198 48.2151C496.145 46.6967 493.181 42.7809 490.15 39.0135C488.632 37.1285 487.094 35.2751 485.764 33.7731C484.45 32.2879 483.301 31.1003 482.574 30.5906L482 31.4094C482.613 31.8396 483.686 32.9335 485.016 34.4359C486.33 35.9214 487.858 37.7615 489.37 39.6405C492.397 43.4012 495.343 47.2955 496.376 48.7848L497.198 48.2151ZM502.532 58.9651C501.601 56.9034 500.613 54.7159 499.689 52.8002C498.769 50.8933 497.897 49.2239 497.198 48.2151L496.376 48.7848C497.025 49.721 497.866 51.324 498.788 53.2348C499.706 55.1369 500.689 57.3123 501.621 59.3768L502.532 58.9651ZM505.233 64.7749C504.502 63.3254 503.553 61.2239 502.532 58.9651L501.621 59.3768C502.638 61.6272 503.597 63.7519 504.34 65.2251L505.233 64.7749ZM510.727 79.715C509.692 76.698 508.607 73.5366 507.639 70.8484C506.675 68.1709 505.816 65.9305 505.233 64.7749L504.34 65.2251C504.89 66.3163 505.729 68.4967 506.698 71.1872C507.663 73.8669 508.745 77.0207 509.781 80.0396L510.727 79.715ZM514.734 90.7764C514.408 90.1243 513.846 88.6441 513.138 86.6595C512.434 84.6878 511.598 82.2528 510.727 79.715L509.781 80.0396C510.652 82.5755 511.49 85.0169 512.196 86.9955C512.897 88.9613 513.48 90.5057 513.839 91.2236L514.734 90.7764ZM524.787 99.5C522.232 99.5 520.105 98.108 518.402 96.2839C516.701 94.4615 515.477 92.2622 514.734 90.7764L513.839 91.2236C514.597 92.7379 515.872 95.0386 517.671 96.9662C519.469 98.892 521.841 100.5 524.787 100.5V99.5ZM532.287 95C531.822 94.8143 531.822 94.8141 531.823 94.8139C531.823 94.8139 531.823 94.8137 531.823 94.8136C531.823 94.8135 531.823 94.8134 531.823 94.8135C531.823 94.8135 531.823 94.8138 531.822 94.8144C531.822 94.8157 531.821 94.8181 531.819 94.8216C531.816 94.8286 531.811 94.8402 531.805 94.856C531.791 94.8877 531.769 94.9361 531.739 94.999C531.679 95.1248 531.585 95.308 531.456 95.5293C531.198 95.9728 530.798 96.5648 530.237 97.1556C529.118 98.3331 527.366 99.5 524.787 99.5V100.5C527.707 100.5 529.705 99.1669 530.962 97.8444C531.588 97.1852 532.032 96.5271 532.32 96.0332C532.464 95.7857 532.57 95.5783 532.641 95.4307C532.676 95.3568 532.703 95.2978 532.721 95.2562C532.73 95.2354 532.737 95.2189 532.742 95.207C532.745 95.2011 532.746 95.1963 532.748 95.1928C532.749 95.191 532.749 95.1895 532.75 95.1883C532.75 95.1877 532.75 95.1872 532.75 95.1868C532.75 95.1865 532.751 95.1863 532.751 95.1861C532.751 95.1859 532.751 95.1857 532.287 95ZM540.322 68.8158C539.569 70.7154 537.438 77.237 535.502 83.2568C534.532 86.2726 533.609 89.1707 532.929 91.3149C532.588 92.387 532.309 93.2706 532.114 93.8862C532.017 94.1941 531.941 94.4349 531.889 94.5988C531.863 94.6807 531.843 94.7434 531.83 94.7856C531.823 94.8068 531.818 94.8227 531.815 94.8335C531.813 94.8388 531.812 94.8429 531.811 94.8456C531.811 94.8469 531.81 94.8479 531.81 94.8486C531.81 94.849 531.81 94.8492 531.81 94.8494C531.81 94.8496 531.81 94.8496 532.287 95C532.763 95.1503 532.763 95.1502 532.764 95.15C532.764 95.1499 532.764 95.1496 532.764 95.1493C532.764 95.1486 532.764 95.1476 532.765 95.1463C532.766 95.1436 532.767 95.1395 532.769 95.1342C532.772 95.1235 532.777 95.1076 532.784 95.0865C532.797 95.0443 532.817 94.9817 532.842 94.8998C532.894 94.7361 532.97 94.4954 533.067 94.1877C533.262 93.5724 533.542 92.6891 533.882 91.6175C534.562 89.474 535.485 86.5771 536.454 83.5629C538.396 77.5226 540.515 71.0442 541.251 69.1841L540.322 68.8158ZM541.495 65.8224C541.034 67.0044 540.628 68.0423 540.322 68.8158L541.251 69.1841C541.559 68.4079 541.965 67.3673 542.427 66.1863L541.495 65.8224ZM546.844 52.7664C545.881 54.5902 543.264 61.2936 541.495 65.8224L542.427 66.1863C544.213 61.6125 546.8 54.9915 547.729 53.2335L546.844 52.7664ZM547.088 52.3047C547.002 52.4674 546.921 52.6218 546.844 52.7664L547.729 53.2335C547.805 53.0886 547.887 52.934 547.973 52.7713L547.088 52.3047ZM551.395 44.6895C550.945 45.2571 550.172 46.5909 549.376 48.0338C548.571 49.4946 547.713 51.1194 547.088 52.3047L547.973 52.7713C548.599 51.5846 549.451 49.9681 550.252 48.5168C551.062 47.0476 551.792 45.7983 552.178 45.3105L551.395 44.6895ZM552.668 42.7785C552.094 43.677 551.663 44.3504 551.395 44.6895L552.178 45.3105C552.487 44.9206 552.954 44.1892 553.511 43.3169L552.668 42.7785ZM557.413 36.1673C555.567 38.2382 553.849 40.9307 552.668 42.7785L553.511 43.3169C554.7 41.4556 556.377 38.8334 558.16 36.8326L557.413 36.1673ZM560.268 32.8269C559.505 33.7595 558.906 34.4928 557.413 36.1673L558.16 36.8326C559.665 35.1445 560.274 34.3997 561.042 33.46L560.268 32.8269ZM562.907 29.6746C561.58 31.2222 560.873 32.0868 560.268 32.8269L561.042 33.46C561.645 32.7229 562.347 31.8649 563.666 30.3254L562.907 29.6746ZM564.046 28.3227C563.676 28.7659 563.3 29.2161 562.907 29.6746L563.666 30.3254C564.064 29.8612 564.444 29.4062 564.814 28.9638L564.046 28.3227ZM573.101 21.0357C568.634 22.8224 566.486 25.4014 564.046 28.3227L564.814 28.9638C567.246 26.0515 569.257 23.6502 573.472 21.9642L573.101 21.0357ZM577.853 19.4315C577.277 19.4433 576.726 19.5969 576.017 19.8611C575.317 20.1216 574.394 20.5186 573.101 21.0357L573.472 21.9642C574.804 21.4317 575.678 21.0544 576.366 20.7982C577.044 20.5455 577.469 20.4396 577.874 20.4313L577.853 19.4315ZM581.945 20.5257C580.892 20.1748 580.112 19.8957 579.5 19.7126C578.879 19.5268 578.374 19.4208 577.853 19.4315L577.874 20.4313C578.241 20.4238 578.629 20.4957 579.213 20.6706C579.806 20.8481 580.543 21.1125 581.628 21.4744L581.945 20.5257ZM590.766 33.3563C590.011 30.8416 588.997 28.0463 587.591 25.682C586.189 23.3241 584.359 21.3305 581.945 20.5257L581.628 21.4744C583.714 22.1695 585.384 23.926 586.732 26.1931C588.076 28.4537 589.062 31.1584 589.808 33.6437L590.766 33.3563ZM593.785 51.4644C593.284 44.4394 592.279 38.4012 590.766 33.3563L589.808 33.6437C591.294 38.5989 592.29 44.5606 592.788 51.5356L593.785 51.4644ZM593.287 65C593.785 65.0383 593.785 65.0382 593.785 65.0382C593.785 65.0381 593.785 65.038 593.785 65.0379C593.785 65.0376 593.785 65.0373 593.785 65.0368C593.785 65.0359 593.785 65.0346 593.786 65.0329C593.786 65.0296 593.786 65.0247 593.787 65.0182C593.788 65.0053 593.789 64.9861 593.791 64.961C593.794 64.9109 593.8 64.8367 593.806 64.7401C593.819 64.5468 593.837 64.2636 593.856 63.9021C593.895 63.1792 593.943 62.143 593.974 60.8875C594.037 58.3776 594.037 54.9855 593.785 51.4644L592.788 51.5356C593.036 55.0145 593.037 58.3724 592.974 60.8625C592.943 62.1069 592.896 63.1332 592.858 63.8478C592.838 64.2051 592.821 64.4843 592.808 64.6739C592.802 64.7687 592.797 64.841 592.793 64.8894C592.792 64.9137 592.79 64.9319 592.789 64.944C592.789 64.95 592.789 64.9545 592.788 64.9575C592.788 64.959 592.788 64.96 592.788 64.9607C592.788 64.9611 592.788 64.9613 592.788 64.9615C592.788 64.9615 592.788 64.9616 592.788 64.9616C592.788 64.9616 592.788 64.9616 593.287 65ZM593.787 74.5V65H592.787V74.5H593.787ZM591.787 83C592.269 83.1316 592.269 83.1315 592.269 83.1314C592.269 83.1314 592.269 83.1313 592.269 83.1312C592.269 83.131 592.269 83.1307 592.269 83.1303C592.27 83.1296 592.27 83.1285 592.27 83.127C592.271 83.1242 592.272 83.1201 592.274 83.1146C592.277 83.1038 592.281 83.0878 592.286 83.0669C592.298 83.0251 592.314 82.9637 592.335 82.8848C592.376 82.7268 592.435 82.4984 592.506 82.215C592.648 81.6486 592.837 80.8616 593.025 79.9798C593.401 78.2296 593.787 76.0583 593.787 74.5H592.787C592.787 75.9417 592.423 78.0205 592.048 79.7702C591.862 80.6384 591.676 81.414 591.536 81.9725C591.466 82.2516 591.408 82.4763 591.367 82.6309C591.347 82.7082 591.331 82.7679 591.32 82.8081C591.315 82.8283 591.311 82.8435 591.308 82.8537C591.307 82.8587 591.306 82.8625 591.305 82.865C591.305 82.8662 591.305 82.8671 591.304 82.8677C591.304 82.868 591.304 82.8682 591.304 82.8683C591.304 82.8684 591.304 82.8684 591.304 82.8685C591.304 82.8685 591.304 82.8685 591.787 83ZM588.261 95.1581L592.261 83.1581L591.312 82.8419L587.312 94.8419L588.261 95.1581ZM584.755 104.623L588.255 95.1736L587.318 94.8263L583.818 104.275L584.755 104.623ZM578.812 118.928L584.748 104.641L583.825 104.257L577.889 118.544L578.812 118.928ZM573.448 131.341L578.809 118.934L577.891 118.537L572.53 130.944L573.448 131.341ZM564.725 147.241L573.427 131.383L572.55 130.902L563.848 146.759L564.725 147.241ZM554.731 166.728L564.731 147.228L563.842 146.772L553.842 166.272L554.731 166.728ZM545.229 183.234C546.414 180.989 548.784 176.873 550.862 173.31C551.9 171.53 552.864 169.892 553.568 168.698C553.92 168.101 554.207 167.615 554.406 167.279C554.506 167.11 554.584 166.98 554.636 166.891C554.663 166.846 554.683 166.812 554.696 166.79C554.703 166.778 554.708 166.77 554.711 166.764C554.713 166.761 554.714 166.759 554.715 166.757C554.716 166.757 554.716 166.756 554.716 166.756C554.716 166.756 554.716 166.755 554.716 166.755C554.717 166.755 554.717 166.755 554.287 166.5C553.857 166.245 553.857 166.245 553.857 166.245C553.857 166.245 553.856 166.245 553.856 166.245C553.856 166.246 553.856 166.246 553.855 166.247C553.854 166.248 553.853 166.251 553.851 166.254C553.848 166.259 553.843 166.268 553.836 166.279C553.823 166.302 553.802 166.336 553.776 166.381C553.723 166.47 553.646 166.601 553.546 166.769C553.346 167.106 553.059 167.592 552.707 168.19C552.002 169.385 551.037 171.025 549.998 172.806C547.922 176.365 545.542 180.5 544.344 182.766L545.229 183.234ZM542.74 188.654C543.52 186.826 544.319 184.956 545.229 183.234L544.344 182.766C543.412 184.532 542.597 186.441 541.82 188.262L542.74 188.654ZM538.819 196.13C540.32 194.337 541.515 191.524 542.74 188.654L541.82 188.262C540.573 191.184 539.436 193.835 538.052 195.488L538.819 196.13ZM530.095 189.418C529.676 189.691 529.676 189.691 529.677 189.691C529.677 189.691 529.677 189.691 529.677 189.691C529.677 189.692 529.677 189.692 529.678 189.693C529.679 189.694 529.68 189.696 529.681 189.698C529.685 189.703 529.689 189.71 529.695 189.719C529.707 189.737 529.724 189.763 529.747 189.798C529.793 189.866 529.859 189.965 529.945 190.09C530.115 190.34 530.362 190.692 530.664 191.106C531.268 191.933 532.103 193.012 533.016 194.005C533.92 194.989 534.937 195.929 535.909 196.438C536.396 196.694 536.914 196.863 537.425 196.841C537.958 196.817 538.438 196.585 538.819 196.13L538.052 195.488C537.845 195.735 537.624 195.831 537.38 195.842C537.114 195.853 536.778 195.765 536.373 195.553C535.56 195.127 534.639 194.294 533.752 193.329C532.874 192.373 532.064 191.327 531.472 190.516C531.176 190.112 530.936 189.768 530.77 189.525C530.687 189.404 530.623 189.308 530.579 189.243C530.558 189.211 530.541 189.186 530.53 189.169C530.525 189.161 530.521 189.155 530.518 189.151C530.517 189.149 530.516 189.147 530.515 189.146C530.515 189.146 530.515 189.145 530.515 189.145C530.514 189.145 530.514 189.145 530.514 189.145C530.514 189.145 530.514 189.145 530.095 189.418ZM520.879 177.289L529.688 189.707L530.503 189.128L521.694 176.711L520.879 177.289ZM507.874 158.282L520.874 177.282L521.699 176.718L508.699 157.717L507.874 158.282ZM499.337 140.718L507.837 158.218L508.736 157.781L500.236 140.281L499.337 140.718ZM488.846 121.237L499.346 140.737L500.227 140.263L489.727 120.763L488.846 121.237ZM481.432 104.737C481.762 105.205 482.388 106.449 483.161 108.111C483.924 109.753 484.807 111.753 485.647 113.692C486.486 115.631 487.281 117.505 487.866 118.896C488.158 119.591 488.398 120.165 488.564 120.565C488.648 120.765 488.713 120.922 488.757 121.028C488.779 121.081 488.796 121.122 488.807 121.149C488.813 121.163 488.817 121.174 488.82 121.18C488.822 121.184 488.823 121.187 488.824 121.188C488.824 121.189 488.824 121.19 488.824 121.19C488.824 121.19 488.824 121.191 488.825 121.191C488.825 121.191 488.825 121.191 489.287 121C489.749 120.809 489.749 120.808 489.749 120.808C489.748 120.808 489.748 120.808 489.748 120.808C489.748 120.807 489.748 120.807 489.747 120.806C489.747 120.804 489.746 120.801 489.744 120.798C489.741 120.791 489.737 120.78 489.731 120.767C489.72 120.739 489.703 120.698 489.681 120.645C489.636 120.538 489.571 120.381 489.487 120.18C489.32 119.779 489.08 119.205 488.787 118.508C488.202 117.116 487.406 115.238 486.565 113.295C485.724 111.353 484.836 109.343 484.067 107.69C483.308 106.056 482.642 104.718 482.249 104.161L481.432 104.737ZM473.812 89.1578C474.574 91.4435 476.115 94.8196 477.636 97.8663C479.155 100.907 480.684 103.677 481.432 104.737L482.249 104.161C481.55 103.17 480.052 100.465 478.531 97.4195C477.012 94.3793 475.499 91.0562 474.761 88.8416L473.812 89.1578ZM469.287 73C468.808 73.1456 468.808 73.1456 468.808 73.1457C468.808 73.1458 468.808 73.146 468.808 73.1461C468.809 73.1465 468.809 73.147 468.809 73.1477C468.809 73.1491 468.81 73.1512 468.811 73.154C468.813 73.1596 468.815 73.1678 468.818 73.1788C468.825 73.2007 468.835 73.2333 468.848 73.276C468.874 73.3614 468.912 73.4872 468.962 73.6488C469.06 73.9722 469.203 74.4391 469.379 75.0135C469.73 76.1622 470.215 77.7407 470.746 79.4599C471.809 82.8964 473.06 86.9015 473.812 89.1578L474.761 88.8416C474.013 86.5975 472.765 82.6029 471.702 79.1646C471.171 77.4464 470.686 75.8688 470.335 74.7207C470.159 74.1467 470.017 73.6801 469.918 73.357C469.869 73.1954 469.831 73.0698 469.805 72.9845C469.792 72.9419 469.782 72.9093 469.775 72.8875C469.772 72.8765 469.769 72.8683 469.767 72.8627C469.767 72.86 469.766 72.8579 469.766 72.8565C469.765 72.8558 469.765 72.8553 469.765 72.8549C469.765 72.8548 469.765 72.8546 469.765 72.8546C469.765 72.8545 469.765 72.8544 469.287 73ZM465.297 56.6034L468.797 73.1038L469.776 72.8963L466.276 56.3959L465.297 56.6034ZM464.287 42.5C464.287 45.0237 464.538 48.5425 464.788 51.4182C464.914 52.8586 465.039 54.1423 465.133 55.0659C465.18 55.5278 465.219 55.8997 465.246 56.1563C465.26 56.2847 465.271 56.3841 465.278 56.4516C465.282 56.4854 465.285 56.5111 465.287 56.5284C465.288 56.5371 465.288 56.5437 465.289 56.5481C465.289 56.5503 465.289 56.552 465.289 56.5531C465.29 56.5537 465.29 56.5541 465.29 56.5544C465.29 56.5546 465.29 56.5547 465.29 56.5548C465.29 56.5548 465.29 56.5549 465.787 56.4997C466.284 56.4445 466.284 56.4444 466.284 56.4444C466.284 56.4443 466.284 56.4442 466.283 56.4441C466.283 56.4439 466.283 56.4435 466.283 56.4429C466.283 56.4419 466.283 56.4403 466.283 56.4382C466.282 56.4339 466.282 56.4275 466.281 56.419C466.279 56.402 466.276 56.3766 466.272 56.3432C466.265 56.2764 466.254 56.1776 466.241 56.0501C466.214 55.795 466.175 55.4248 466.128 54.9648C466.034 54.0447 465.909 52.766 465.785 51.3315C465.535 48.4574 465.287 44.9764 465.287 42.5H464.287ZM464.287 42.4998V42.5H465.287V42.4998H464.287ZM465.322 29.3143C464.788 30.6493 464.537 32.7253 464.412 35.0354C464.286 37.364 464.287 40.0032 464.287 42.4998H465.287C465.287 39.9965 465.287 37.3858 465.411 35.0894C465.536 32.7746 465.785 30.8507 466.251 29.6857L465.322 29.3143ZM471.225 25.5039C469.241 25.7517 467.997 26.0085 467.134 26.5839C466.241 27.1797 465.819 28.0721 465.322 29.3143L466.251 29.6857C466.754 28.428 467.083 27.8202 467.689 27.4159C468.326 26.9912 469.332 26.748 471.349 26.4962L471.225 25.5039ZM481.513 29.8281C480.179 28.8587 478.54 27.6672 476.789 26.7768C475.042 25.8884 473.121 25.267 471.225 25.5039L471.349 26.4962C472.956 26.2953 474.663 26.8173 476.336 27.6681C478.005 28.5169 479.581 29.6606 480.925 30.6371L481.513 29.8281ZM482.574 30.5906C482.246 30.3607 481.892 30.1038 481.513 29.8281L480.925 30.6371C481.303 30.9116 481.663 31.1737 482 31.4094L482.574 30.5906Z" fill="white"/>
</svg>
